<?xml version="1.0" encoding="UTF-8" standalone="no"?>
<svg
   xmlns:dc="http://purl.org/dc/elements/1.1/"
   xmlns:cc="http://creativecommons.org/ns#"
   xmlns:rdf="http://www.w3.org/1999/02/22-rdf-syntax-ns#"
   xmlns:svg="http://www.w3.org/2000/svg"
   xmlns="http://www.w3.org/2000/svg"
   xmlns:sodipodi="http://sodipodi.sourceforge.net/DTD/sodipodi-0.dtd"
   xmlns:inkscape="http://www.inkscape.org/namespaces/inkscape"
   height="1792"
   viewBox="0 0 1792 1792"
   width="1792"
   id="svg2"
   version="1.1"
   inkscape:version="0.91 r13725"
   sodipodi:docname="collapse.svg">
  <metadata
     id="metadata10">
    <rdf:RDF>
      <cc:Work
         rdf:about="">
        <dc:format>image/svg+xml</dc:format>
        <dc:type
           rdf:resource="http://purl.org/dc/dcmitype/StillImage" />
        <dc:title></dc:title>
      </cc:Work>
    </rdf:RDF>
  </metadata>
  <defs
     id="defs8" />
  <sodipodi:namedview
     pagecolor="#ffffff"
     bordercolor="#666666"
     borderopacity="1"
     objecttolerance="10"
     gridtolerance="10"
     guidetolerance="10"
     inkscape:pageopacity="0"
     inkscape:pageshadow="2"
     inkscape:window-width="1858"
     inkscape:window-height="1058"
     id="namedview6"
     showgrid="false"
     inkscape:zoom="0.13169643"
     inkscape:cx="896"
     inkscape:cy="896"
     inkscape:window-x="-4"
     inkscape:window-y="-4"
     inkscape:window-maximized="1"
     inkscape:current-layer="svg2" />
  <path
     d="m 1687.8813,273.8983 q 0,13 -10,23 l -332,332 144,144 q 19,19 19,45 0,26 -19,45 -19,19 -45,19 l -448,0 q -25.9999,0 -44.99994,-19 -19,-19 -19,-45 l 0,-448 q 0,-26 19,-45 19.00004,-19 44.99994,-19 26,0 45,19 l 144,144 332,-332 q 10,-10 23,-10 13,0 23,10 l 114,114 q 10,10 10,23 z"
     id="path3349"
     inkscape:connector-curvature="0" />
  <path
     d="m 897.08478,974.10165 0,447.99995 q 0,26 -19,45 -19,19 -45,19 -26,0 -45,-19 l -144,-144 -332,332 q -10,10 -23,10 -13,0 -23,-10 l -114,-114 q -10,-10 -10,-23 0,-13 10,-23 l 332,-332 -144,-144 q -19,-18.9999 -19,-44.99995 0,-26 19,-45 19,-19 45,-19 l 448,0 q 26,0 45,19 19,19 19,45 z"
     id="path4"
     inkscape:connector-curvature="0" />
</svg>
