  0
SECTION
  2
HEADER
  9
$ACADVER
  1
AC1015
  9
$ACADMAINTVER
 70
20
  9
$DWGCODEPAGE
  3
ANSI_1252
  9
$LASTSAVEDBY
  1
unknown
  9
$INSBASE
 10
0.0
 20
0.0
 30
0.0
  9
$EXTMIN
 10
1e+20
 20
1e+20
 30
1e+20
  9
$EXTMAX
 10
-1e+20
 20
-1e+20
 30
-1e+20
  9
$LIMMIN
 10
0.0
 20
0.0
  9
$LIMMAX
 10
12.0
 20
9.0
  9
$ORTHOMODE
 70
0
  9
$REGENMODE
 70
1
  9
$FILLMODE
 70
1
  9
$QTEXTMODE
 70
0
  9
$MIRRTEXT
 70
0
  9
$LTSCALE
 40
1.0
  9
$ATTMODE
 70
1
  9
$TEXTSIZE
 40
0.2
  9
$TRACEWID
 40
0.05
  9
$TEXTSTYLE
  7
Notes
  9
$CLAYER
  8
0
  9
$CELTYPE
  6
ByLayer
  9
$CECOLOR
 62
256
  9
$CELTSCALE
 40
1.0
  9
$DISPSILH
 70
0
  9
$DIMSCALE
 40
1.0
  9
$DIMASZ
 40
3.0
  9
$DIMEXO
 40
1.5
  9
$DIMDLI
 40
6.0
  9
$DIMRND
 40
0.0
  9
$DIMDLE
 40
0.0
  9
$DIMEXE
 40
3.0
  9
$DIMTP
 40
0.0
  9
$DIMTM
 40
0.0
  9
$DIMTXT
 40
3.0
  9
$DIMCEN
 40
3.0
  9
$DIMTSZ
 40
0.0
  9
$DIMTOL
 70
0
  9
$DIMLIM
 70
0
  9
$DIMTIH
 70
0
  9
$DIMTOH
 70
0
  9
$DIMSE1
 70
0
  9
$DIMSE2
 70
0
  9
$DIMTAD
 70
1
  9
$DIMZIN
 70
3
  9
$DIMBLK
  1

  9
$DIMASO
 70
1
  9
$DIMSHO
 70
1
  9
$DIMPOST
  1

  9
$DIMAPOST
  1

  9
$DIMALT
 70
0
  9
$DIMALTD
 70
2
  9
$DIMALTF
 40
25.4
  9
$DIMLFAC
 40
1.0
  9
$DIMTOFL
 70
0
  9
$DIMTVP
 40
0.0
  9
$DIMTIX
 70
0
  9
$DIMSOXD
 70
0
  9
$DIMSAH
 70
0
  9
$DIMBLK1
  1

  9
$DIMBLK2
  1

  9
$DIMSTYLE
  2
Civil-Metric
  9
$DIMCLRD
 70
0
  9
$DIMCLRE
 70
0
  9
$DIMCLRT
 70
0
  9
$DIMTFAC
 40
1.0
  9
$DIMGAP
 40
2.0
  9
$DIMJUST
 70
0
  9
$DIMSD1
 70
0
  9
$DIMSD2
 70
0
  9
$DIMTOLJ
 70
1
  9
$DIMTZIN
 70
0
  9
$DIMALTZ
 70
0
  9
$DIMALTTZ
 70
0
  9
$DIMUPT
 70
0
  9
$DIMDEC
 70
2
  9
$DIMTDEC
 70
2
  9
$DIMALTU
 70
2
  9
$DIMALTTD
 70
2
  9
$DIMTXSTY
  7
Standard
  9
$DIMAUNIT
 70
0
  9
$DIMADEC
 70
2
  9
$DIMALTRND
 40
0.0
  9
$DIMAZIN
 70
2
  9
$DIMDSEP
 70
46
  9
$DIMATFIT
 70
3
  9
$DIMFRAC
 70
1
  9
$DIMLDRBLK
  1

  9
$DIMLUNIT
 70
2
  9
$DIMLWD
 70
-2
  9
$DIMLWE
 70
-2
  9
$DIMTMOVE
 70
0
  9
$LUNITS
 70
2
  9
$LUPREC
 70
4
  9
$SKETCHINC
 40
0.1
  9
$FILLETRAD
 40
0.0
  9
$AUNITS
 70
4
  9
$AUPREC
 70
5
  9
$MENU
  1
.
  9
$ELEVATION
 40
0.0
  9
$PELEVATION
 40
0.0
  9
$THICKNESS
 40
0.0
  9
$LIMCHECK
 70
0
  9
$CHAMFERA
 40
0.0
  9
$CHAMFERB
 40
0.0
  9
$CHAMFERC
 40
0.0
  9
$CHAMFERD
 40
0.0
  9
$SKPOLY
 70
0
  9
$TDCREATE
 40
2458796.574328704
  9
$TDUPDATE
 40
2458796.574328704
  9
$TDINDWG
 40
0.0
  9
$TDUSRTIMER
 40
0.0
  9
$USRTIMER
 70
1
  9
$ANGBASE
 50
0.0
  9
$ANGDIR
 70
0
  9
$PDMODE
 70
0
  9
$PDSIZE
 40
0.0
  9
$PLINEWID
 40
0.0
  9
$SPLFRAME
 70
0
  9
$SPLINETYPE
 70
6
  9
$SPLINESEGS
 70
8
  9
$HANDSEED
  5
63E
  9
$SURFTAB1
 70
6
  9
$SURFTAB2
 70
6
  9
$SURFTYPE
 70
6
  9
$SURFU
 70
6
  9
$SURFV
 70
6
  9
$UCSBASE
  2

  9
$UCSNAME
  2

  9
$UCSORG
 10
0.0
 20
0.0
 30
0.0
  9
$UCSXDIR
 10
1.0
 20
0.0
 30
0.0
  9
$UCSYDIR
 10
0.0
 20
1.0
 30
0.0
  9
$UCSORTHOREF
  2

  9
$UCSORTHOVIEW
 70
0
  9
$UCSORGTOP
 10
0.0
 20
0.0
 30
0.0
  9
$UCSORGBOTTOM
 10
0.0
 20
0.0
 30
0.0
  9
$UCSORGLEFT
 10
0.0
 20
0.0
 30
0.0
  9
$UCSORGRIGHT
 10
0.0
 20
0.0
 30
0.0
  9
$UCSORGFRONT
 10
0.0
 20
0.0
 30
0.0
  9
$UCSORGBACK
 10
0.0
 20
0.0
 30
0.0
  9
$PUCSBASE
  2

  9
$PUCSNAME
  2

  9
$PUCSORG
 10
0.0
 20
0.0
 30
0.0
  9
$PUCSXDIR
 10
1.0
 20
0.0
 30
0.0
  9
$PUCSYDIR
 10
0.0
 20
1.0
 30
0.0
  9
$PUCSORTHOREF
  2

  9
$PUCSORTHOVIEW
 70
0
  9
$PUCSORGTOP
 10
0.0
 20
0.0
 30
0.0
  9
$PUCSORGBOTTOM
 10
0.0
 20
0.0
 30
0.0
  9
$PUCSORGLEFT
 10
0.0
 20
0.0
 30
0.0
  9
$PUCSORGRIGHT
 10
0.0
 20
0.0
 30
0.0
  9
$PUCSORGFRONT
 10
0.0
 20
0.0
 30
0.0
  9
$PUCSORGBACK
 10
0.0
 20
0.0
 30
0.0
  9
$USERI1
 70
0
  9
$USERI2
 70
0
  9
$USERI3
 70
0
  9
$USERI4
 70
0
  9
$USERI5
 70
0
  9
$USERR1
 40
0.0
  9
$USERR2
 40
0.0
  9
$USERR3
 40
0.0
  9
$USERR4
 40
0.0
  9
$USERR5
 40
0.0
  9
$WORLDVIEW
 70
1
  9
$SHADEDGE
 70
3
  9
$SHADEDIF
 70
70
  9
$TILEMODE
 70
1
  9
$MAXACTVP
 70
64
  9
$PINSBASE
 10
0.0
 20
0.0
 30
0.0
  9
$PLIMCHECK
 70
0
  9
$PEXTMIN
 10
0.62886676639706
 20
0.7999999523162842
 30
0.0
  9
$PEXTMAX
 10
9.028866384927335
 20
7.199999570846558
 30
0.0
  9
$PLIMMIN
 10
-0.7005418191744587
 20
-0.2281003861915408
  9
$PLIMMAX
 10
10.29945794052965
 20
8.27189937351257
  9
$UNITMODE
 70
0
  9
$VISRETAIN
 70
1
  9
$PLINEGEN
 70
0
  9
$PSLTSCALE
 70
1
  9
$TREEDEPTH
 70
3020
  9
$CMLSTYLE
  2
Standard
  9
$CMLJUST
 70
0
  9
$CMLSCALE
 40
1.0
  9
$PROXYGRAPHICS
 70
1
  9
$MEASUREMENT
 70
1
  9
$CELWEIGHT
370
-1
  9
$ENDCAPS
280
0
  9
$JOINSTYLE
280
0
  9
$LWDISPLAY
290
0
  9
$INSUNITS
 70
4
  9
$HYPERLINKBASE
  1

  9
$STYLESHEET
  1

  9
$XEDIT
290
1
  9
$CEPSNTYPE
380
0
  9
$PSTYLEMODE
290
1
  9
$FINGERPRINTGUID
  2
18DF529E-0215-11EA-A012-9EAA87FEFB1F
  9
$VERSIONGUID
  2
190F8B14-0215-11EA-B99F-9EAA87FEFB1F
  9
$EXTNAMES
290
1
  9
$PSVPSCALE
 40
0.0
  9
$OLESTARTUP
290
0
  0
ENDSEC
  0
SECTION
  2
CLASSES
  0
CLASS
  1
ACDBDICTIONARYWDFLT
  2
AcDbDictionaryWithDefault
  3
ObjectDBX Classes
 90
0
280
0
281
0
  0
CLASS
  1
ACDBPLACEHOLDER
  2
AcDbPlaceHolder
  3
ObjectDBX Classes
 90
0
280
0
281
0
  0
CLASS
  1
LAYOUT
  2
AcDbLayout
  3
ObjectDBX Classes
 90
0
280
0
281
0
  0
CLASS
  1
DICTIONARYVAR
  2
AcDbDictionaryVar
  3
ObjectDBX Classes
 90
0
280
0
281
0
  0
CLASS
  1
TABLESTYLE
  2
AcDbTableStyle
  3
ObjectDBX Classes
 90
4095
280
0
281
0
  0
CLASS
  1
MATERIAL
  2
AcDbMaterial
  3
ObjectDBX Classes
 90
1153
280
0
281
0
  0
CLASS
  1
VISUALSTYLE
  2
AcDbVisualStyle
  3
ObjectDBX Classes
 90
4095
280
0
281
0
  0
CLASS
  1
SCALE
  2
AcDbScale
  3
ObjectDBX Classes
 90
1153
280
0
281
0
  0
CLASS
  1
MLEADERSTYLE
  2
AcDbMLeaderStyle
  3
ACDB_MLEADERSTYLE_CLASS
 90
4095
280
0
281
0
  0
CLASS
  1
CELLSTYLEMAP
  2
AcDbCellStyleMap
  3
ObjectDBX Classes
 90
1152
280
0
281
0
  0
CLASS
  1
EXACXREFPANELOBJECT
  2
ExAcXREFPanelObject
  3
EXAC_ESW
 90
33793
280
0
281
0
  0
CLASS
  1
NPOCOLLECTION
  2
AcDbImpNonPersistentObjectsCollection
  3
ObjectDBX Classes
 90
33921
280
0
281
0
  0
CLASS
  1
LAYER_INDEX
  2
AcDbLayerIndex
  3
ObjectDBX Classes
 90
32768
280
0
281
0
  0
CLASS
  1
SPATIAL_INDEX
  2
AcDbSpatialIndex
  3
ObjectDBX Classes
 90
32768
280
0
281
0
  0
CLASS
  1
IDBUFFER
  2
AcDbIdBuffer
  3
ObjectDBX Classes
 90
32768
280
0
281
0
  0
CLASS
  1
DIMASSOC
  2
AcDbDimAssoc
  3
"AcDbDimAssoc|Product Desc:     AcDim ARX App For Dimension|Company:          Autodesk, Inc.|WEB Address:      www.autodesk.com"
 90
32768
280
0
281
0
  0
CLASS
  1
IMAGEDEF
  2
AcDbRasterImageDef
  3
ISM
 90
0
280
0
281
0
  0
CLASS
  1
RASTERVARIABLES
  2
AcDbRasterVariables
  3
ISM
 90
0
280
0
281
0
  0
CLASS
  1
IMAGEDEF_REACTOR
  2
AcDbRasterImageDefReactor
  3
ISM
 90
1
280
0
281
0
  0
CLASS
  1
IMAGE
  2
AcDbRasterImage
  3
ISM
 90
2175
280
0
281
1
  0
CLASS
  1
PDFDEFINITION
  2
AcDbPdfDefinition
  3
ObjectDBX Classes
 90
1153
280
0
281
0
  0
CLASS
  1
PDFUNDERLAY
  2
AcDbPdfReference
  3
ObjectDBX Classes
 90
4095
280
0
281
1
  0
CLASS
  1
DWFDEFINITION
  2
AcDbDwfDefinition
  3
ObjectDBX Classes
 90
1153
280
0
281
0
  0
CLASS
  1
DWFUNDERLAY
  2
AcDbDwfReference
  3
ObjectDBX Classes
 90
1153
280
0
281
1
  0
CLASS
  1
DGNDEFINITION
  2
AcDbDgnDefinition
  3
ObjectDBX Classes
 90
1153
280
0
281
0
  0
CLASS
  1
DGNUNDERLAY
  2
AcDbDgnReference
  3
ObjectDBX Classes
 90
1153
280
0
281
1
  0
ENDSEC
  0
SECTION
  2
TABLES
  0
TABLE
  2
VPORT
  5
8
330
0
100
AcDbSymbolTable
 70
0
  0
ENDTAB
  0
TABLE
  2
LTYPE
  5
5
330
0
100
AcDbSymbolTable
 70
7
  0
LTYPE
  5
14
330
5
100
AcDbSymbolTableRecord
100
AcDbLinetypeTableRecord
  2
ByBlock
 70
0
  3

 72
65
 73
0
 40
0.0
  0
LTYPE
  5
15
330
5
100
AcDbSymbolTableRecord
100
AcDbLinetypeTableRecord
  2
ByLayer
 70
0
  3

 72
65
 73
0
 40
0.0
  0
LTYPE
  5
16
330
5
100
AcDbSymbolTableRecord
100
AcDbLinetypeTableRecord
  2
Continuous
 70
0
  3
Solid line
 72
65
 73
0
 40
0.0
  0
LTYPE
  5
1B1
330
5
100
AcDbSymbolTableRecord
100
AcDbLinetypeTableRecord
  2
CENTER
 70
0
  3
Center ____ _ ____ _ ____ _ ____ _ ____ _ ____
 72
65
 73
4
 40
2.0
 49
1.25
 74
0
 49
-0.25
 74
0
 49
0.25
 74
0
 49
-0.25
 74
0
  0
LTYPE
  5
1B2
330
5
100
AcDbSymbolTableRecord
100
AcDbLinetypeTableRecord
  2
DASHED
 70
0
  3
Dashed __ __ __ __ __ __ __ __ __ __ __ __ __ _
 72
65
 73
2
 40
0.75
 49
0.5
 74
0
 49
-0.25
 74
0
  0
LTYPE
  5
1B3
330
5
100
AcDbSymbolTableRecord
100
AcDbLinetypeTableRecord
  2
PHANTOM
 70
0
  3
Phantom ______  __  __  ______  __  __  ______
 72
65
 73
6
 40
2.5
 49
1.25
 74
0
 49
-0.25
 74
0
 49
0.25
 74
0
 49
-0.25
 74
0
 49
0.25
 74
0
 49
-0.25
 74
0
  0
LTYPE
  5
39E
330
5
100
AcDbSymbolTableRecord
100
AcDbLinetypeTableRecord
  2
HIDDEN
 70
0
  3
Hidden __ __ __ __ __ __ __ __ __ __ __ __ __ __
 72
65
 73
2
 40
9.525
 49
6.35
 74
0
 49
-3.175
 74
0
  0
ENDTAB
  0
TABLE
  2
LAYER
  5
2
330
0
100
AcDbSymbolTable
 70
3
  0
LAYER
  5
10
330
2
100
AcDbSymbolTableRecord
100
AcDbLayerTableRecord
  2
0
 70
0
 62
7
  6
Continuous
370
-3
390
4AA
  0
LAYER
  5
1B4
330
2
100
AcDbSymbolTableRecord
100
AcDbLayerTableRecord
  2
View Port
 70
0
 62
7
  6
Continuous
290
0
370
-3
390
4AA
  0
LAYER
  5
21D
330
2
100
AcDbSymbolTableRecord
100
AcDbLayerTableRecord
  2
Defpoints
 70
0
 62
7
  6
Continuous
290
0
370
-3
390
4AA
  0
ENDTAB
  0
TABLE
  2
STYLE
  5
3
330
0
100
AcDbSymbolTable
 70
3
  0
STYLE
  5
11
330
3
100
AcDbSymbolTableRecord
100
AcDbTextStyleTableRecord
  2
Standard
 70
0
 40
0.0
 41
1.0
 50
0.0
 71
0
 42
0.2
  3
arial.ttf
  4

  0
STYLE
  5
DC
330
3
100
AcDbSymbolTableRecord
100
AcDbTextStyleTableRecord
  2
Annotative
 70
0
 40
0.0
 41
1.0
 50
0.0
 71
0
 42
0.2
  3
arial.ttf
  4

  0
STYLE
  5
178
330
3
100
AcDbSymbolTableRecord
100
AcDbTextStyleTableRecord
  2
Notes
 70
0
 40
3.0
 41
1.0
 50
0.0
 71
0
 42
0.2
  3
arial.ttf
  4

  0
ENDTAB
  0
TABLE
  2
VIEW
  5
6
330
0
100
AcDbSymbolTable
 70
0
  0
ENDTAB
  0
TABLE
  2
UCS
  5
7
330
0
100
AcDbSymbolTable
 70
0
  0
ENDTAB
  0
TABLE
  2
APPID
  5
9
330
0
100
AcDbSymbolTable
 70
11
  0
APPID
  5
12
330
9
100
AcDbSymbolTableRecord
100
AcDbRegAppTableRecord
  2
ACAD
 70
0
  0
APPID
  5
DD
330
9
100
AcDbSymbolTableRecord
100
AcDbRegAppTableRecord
  2
AcadAnnoPO
 70
0
  0
APPID
  5
DE
330
9
100
AcDbSymbolTableRecord
100
AcDbRegAppTableRecord
  2
AcadAnnotative
 70
0
  0
APPID
  5
DF
330
9
100
AcDbSymbolTableRecord
100
AcDbRegAppTableRecord
  2
ACAD_DSTYLE_DIMJAG
 70
0
  0
APPID
  5
E0
330
9
100
AcDbSymbolTableRecord
100
AcDbRegAppTableRecord
  2
ACAD_DSTYLE_DIMTALN
 70
0
  0
APPID
  5
107
330
9
100
AcDbSymbolTableRecord
100
AcDbRegAppTableRecord
  2
ACAD_MLEADERVER
 70
0
  0
APPID
  5
1B5
330
9
100
AcDbSymbolTableRecord
100
AcDbRegAppTableRecord
  2
AcAecLayerStandard
 70
0
  0
APPID
  5
1BA
330
9
100
AcDbSymbolTableRecord
100
AcDbRegAppTableRecord
  2
ACAD_EXEMPT_FROM_CAD_STANDARDS
 70
0
  0
APPID
  5
237
330
9
100
AcDbSymbolTableRecord
100
AcDbRegAppTableRecord
  2
ACAD_DSTYLE_DIMBREAK
 70
0
  0
APPID
  5
28E
330
9
100
AcDbSymbolTableRecord
100
AcDbRegAppTableRecord
  2
ACAD_PSEXT
 70
0
  0
APPID
  5
482
330
9
100
AcDbSymbolTableRecord
100
AcDbRegAppTableRecord
  2
HATCHBACKGROUNDCOLOR
 70
0
  0
ENDTAB
  0
TABLE
  2
DIMSTYLE
  5
A
330
0
100
AcDbSymbolTable
 70
3
100
AcDbDimStyleTable
 71
3
340
242
340
27
340
E1
  0
DIMSTYLE
105
27
330
A
100
AcDbSymbolTableRecord
100
AcDbDimStyleTableRecord
  2
Standard
 70
0
 41
3.0
 42
2.0
 43
9.0
 44
5.0
140
3.0
141
2.0
147
2.0
340
11
1001
ACAD_DSTYLE_DIMJAG
1070
388
1040
38.0
1001
ACAD_DSTYLE_DIMBREAK
1070
391
1040
90.0
1001
ACAD_DSTYLE_DIMTALN
1070
392
1070
0
  0
DIMSTYLE
105
E1
330
A
100
AcDbSymbolTableRecord
100
AcDbDimStyleTableRecord
  2
Annotative
 70
0
 40
0.0
 41
3.0
 42
2.5
 43
10.0
 44
5.0
140
3.0
141
2.0
147
2.0
340
11
1001
AcadAnnotative
1000
AnnotativeData
1002
{
1070
1
1070
1
1002
}
1001
ACAD_DSTYLE_DIMJAG
1070
388
1040
38.0
1001
ACAD_DSTYLE_DIMBREAK
1070
391
1040
90.0
1001
ACAD_DSTYLE_DIMTALN
1070
392
1070
0
  0
DIMSTYLE
105
242
330
A
100
AcDbSymbolTableRecord
100
AcDbDimStyleTableRecord
  2
Civil-Metric
 70
0
 41
3.0
 42
1.5
 43
6.0
 44
3.0
 73
0
 74
0
 77
1
 78
3
 79
2
140
3.0
141
3.0
147
2.0
179
2
271
2
272
2
276
1
340
11
1001
ACAD_DSTYLE_DIMBREAK
1070
391
1040
3.0
1001
ACAD_DSTYLE_DIMJAG
1070
388
1040
38.0
1001
ACAD_DSTYLE_DIMTALN
1070
392
1070
0
  0
ENDTAB
  0
TABLE
  2
BLOCK_RECORD
  5
1
330
0
100
AcDbSymbolTable
 70
25
  0
BLOCK_RECORD
  5
1F
102
{ACAD_XDICTIONARY
360
15D
102
}
330
1
100
AcDbSymbolTableRecord
100
AcDbBlockTableRecord
  2
*Model_Space
340
4AF
  0
BLOCK_RECORD
  5
58
330
1
100
AcDbSymbolTableRecord
100
AcDbBlockTableRecord
  2
*Paper_Space
340
4B0
  0
BLOCK_RECORD
  5
238
330
1
100
AcDbSymbolTableRecord
100
AcDbBlockTableRecord
  2
_ArchTick
340
0
  0
BLOCK_RECORD
  5
23C
330
1
100
AcDbSymbolTableRecord
100
AcDbBlockTableRecord
  2
_Open30
340
0
  0
BLOCK_RECORD
  5
59B
330
1
100
AcDbSymbolTableRecord
100
AcDbBlockTableRecord
  2
77 03 0009007
340
0
  0
BLOCK_RECORD
  5
5A1
330
1
100
AcDbSymbolTableRecord
100
AcDbBlockTableRecord
  2
77 03 0009000 2
340
0
  0
BLOCK_RECORD
  5
5A7
330
1
100
AcDbSymbolTableRecord
100
AcDbBlockTableRecord
  2
77 03 0009007 1000
340
0
  0
BLOCK_RECORD
  5
5AD
330
1
100
AcDbSymbolTableRecord
100
AcDbBlockTableRecord
  2
77 03 0009007 11
340
0
  0
BLOCK_RECORD
  5
5B3
330
1
100
AcDbSymbolTableRecord
100
AcDbBlockTableRecord
  2
77 03 0009007 12
340
0
  0
BLOCK_RECORD
  5
5BB
330
1
100
AcDbSymbolTableRecord
100
AcDbBlockTableRecord
  2
77 03 0009007 1222
340
0
  0
BLOCK_RECORD
  5
5C3
330
1
100
AcDbSymbolTableRecord
100
AcDbBlockTableRecord
  2
77 03 0009007 1224
340
0
  0
BLOCK_RECORD
  5
5C9
330
1
100
AcDbSymbolTableRecord
100
AcDbBlockTableRecord
  2
77 03 0009007 1225
340
0
  0
BLOCK_RECORD
  5
5CF
330
1
100
AcDbSymbolTableRecord
100
AcDbBlockTableRecord
  2
77 03 0009007 1226
340
0
  0
BLOCK_RECORD
  5
5D5
330
1
100
AcDbSymbolTableRecord
100
AcDbBlockTableRecord
  2
77 03 0009007 1227
340
0
  0
BLOCK_RECORD
  5
5DB
330
1
100
AcDbSymbolTableRecord
100
AcDbBlockTableRecord
  2
77 03 0009007 1228
340
0
  0
BLOCK_RECORD
  5
5E1
330
1
100
AcDbSymbolTableRecord
100
AcDbBlockTableRecord
  2
77 03 0009007 1229
340
0
  0
BLOCK_RECORD
  5
5E7
330
1
100
AcDbSymbolTableRecord
100
AcDbBlockTableRecord
  2
77 03 0009007 2
340
0
  0
BLOCK_RECORD
  5
5ED
330
1
100
AcDbSymbolTableRecord
100
AcDbBlockTableRecord
  2
77 03 0009007 6
340
0
  0
BLOCK_RECORD
  5
5F3
330
1
100
AcDbSymbolTableRecord
100
AcDbBlockTableRecord
  2
77 03 0009005 2298
340
0
  0
BLOCK_RECORD
  5
5F9
330
1
100
AcDbSymbolTableRecord
100
AcDbBlockTableRecord
  2
77 03 0009007 1001
340
0
  0
BLOCK_RECORD
  5
5FF
330
1
100
AcDbSymbolTableRecord
100
AcDbBlockTableRecord
  2
77 03 0009007 1002
340
0
  0
BLOCK_RECORD
  5
605
330
1
100
AcDbSymbolTableRecord
100
AcDbBlockTableRecord
  2
77 03 0009007 1003
340
0
  0
BLOCK_RECORD
  5
60B
330
1
100
AcDbSymbolTableRecord
100
AcDbBlockTableRecord
  2
77 03 0009007 1004
340
0
  0
BLOCK_RECORD
  5
611
330
1
100
AcDbSymbolTableRecord
100
AcDbBlockTableRecord
  2
77 03 0009007 1223
340
0
  0
BLOCK_RECORD
  5
62D
330
1
100
AcDbSymbolTableRecord
100
AcDbBlockTableRecord
  2
77 03 0009007 1230
340
0
  0
ENDTAB
  0
ENDSEC
  0
SECTION
  2
BLOCKS
  0
BLOCK
  5
5A
330
58
100
AcDbEntity
 67
1
  8
0
100
AcDbBlockBegin
  2
*Paper_Space
 70
0
 10
0.0
 20
0.0
 30
0.0
  3
*Paper_Space
  1

  0
ENDBLK
  5
5B
330
58
100
AcDbEntity
 67
1
  8
0
100
AcDbBlockEnd
  0
BLOCK
  5
20
330
1F
100
AcDbEntity
  8
0
100
AcDbBlockBegin
  2
*Model_Space
 70
0
 10
0.0
 20
0.0
 30
0.0
  3
*Model_Space
  1

  0
ENDBLK
  5
21
330
1F
100
AcDbEntity
  8
0
100
AcDbBlockEnd
  0
BLOCK
  5
23A
330
238
100
AcDbEntity
  8
0
100
AcDbBlockBegin
  2
_ArchTick
 70
0
 10
0.0
 20
0.0
 30
0.0
  3
_ArchTick
  1

  0
LWPOLYLINE
  5
239
330
238
100
AcDbEntity
  8
0
  6
ByBlock
 62
0
100
AcDbPolyline
 90
2
 70
0
 43
0.15
 10
-0.5
 20
-0.5
 10
0.5
 20
0.5
  0
ENDBLK
  5
23B
330
238
100
AcDbEntity
  8
0
100
AcDbBlockEnd
  0
BLOCK
  5
240
330
23C
100
AcDbEntity
  8
0
100
AcDbBlockBegin
  2
_Open30
 70
0
 10
0.0
 20
0.0
 30
0.0
  3
_Open30
  1

  0
LINE
  5
23D
330
23C
100
AcDbEntity
  8
0
  6
ByBlock
 62
0
370
-2
100
AcDbLine
 10
-1.0
 20
0.26794919
 30
0.0
 11
0.0
 21
0.0
 31
0.0
  0
LINE
  5
23E
330
23C
100
AcDbEntity
  8
0
  6
ByBlock
 62
0
370
-2
100
AcDbLine
 10
0.0
 20
0.0
 30
0.0
 11
-1.0
 21
-0.26794919
 31
0.0
  0
LINE
  5
23F
330
23C
100
AcDbEntity
  8
0
  6
ByBlock
 62
0
370
-2
100
AcDbLine
 10
0.0
 20
0.0
 30
0.0
 11
-1.0
 21
0.0
 31
0.0
  0
ENDBLK
  5
241
330
23C
100
AcDbEntity
  8
0
100
AcDbBlockEnd
  0
BLOCK
  5
599
330
59B
100
AcDbEntity
  8
0
100
AcDbBlockBegin
  2
77 03 0009007
  3
77 03 0009007
 70
0
 10
0.0
 20
0.0
  1

  0
LWPOLYLINE
  5
59C
330
59B
100
AcDbEntity
  8
0
 62
7
 67
0
100
AcDbPolyline
 90
56
 70
0
 43
2.0
 10
24137.41
 20
9233.35
 10
24137.21
 20
9233.39
 10
24135.75
 20
9232.91
 10
24121.11
 20
9227.71
 10
24107.93
 20
9223.01
 10
24099.01
 20
9219.91
 10
24098.73
 20
9220.63
 10
24018.25
 20
9191.27
 10
23946.33
 20
9165.03
 10
23830.01
 20
9124.39
 10
23578.31
 20
9036.43
 10
23578.11
 20
9032.87
 10
23568.91
 20
9029.71
 10
23551.17
 20
9023.59
 10
23550.45
 20
9025.37
 10
23544.09
 20
9023.69
 10
23519.39
 20
9014.99
 10
23510.17
 20
9011.49
 10
23502.87
 20
9008.25
 10
23459.47
 20
8992.79
 10
23458.87
 20
8994.45
 10
23019.55
 20
8839.15
 10
23012.75
 20
8837.43
 10
22910.57
 20
8811.59
 10
22911.33
 20
8799.75
 10
22919.11
 20
8781.07
 10
22964.15
 20
8652.37
 10
23033.69
 20
8676.99
 10
23061.97
 20
8685.23
 10
23161.27
 20
8720.39
 10
23274.37
 20
8760.63
 10
23336.67
 20
8783.11
 10
23464.13
 20
8826.95
 10
23632.43
 20
8886.79
 10
23680.67
 20
8904.43
 10
23824.27
 20
8954.81
 10
23837.03
 20
8958.39
 10
23845.71
 20
8956.35
 10
23851.47
 20
8958.65
 10
23963.79
 20
8999.47
 10
24071.25
 20
9041.87
 10
24154.45
 20
9077.11
 10
24232.81
 20
9113.95
 10
24252.39
 20
9124.15
 10
24271.95
 20
9134.33
 10
24303.75
 20
9151.75
 10
24320.71
 20
9160.97
 10
24333.21
 20
9169.53
 10
24316.53
 20
9174.73
 10
24315.53
 20
9173.25
 10
24284.43
 20
9182.53
 10
24284.91
 20
9186.17
 10
24281.41
 20
9187.27
 10
24270.13
 20
9189.77
 10
24227.31
 20
9202.67
 10
24137.41
 20
9233.35
  0
TEXT
  5
59D
330
59B
100
AcDbEntity
  8
0
 62
7
 67
0
100
AcDbText
 10
23621.0
 20
8942.0
 40
25.0
  1
77:03:0009007 CadastralBlock
 50
0.0
 51
0.0
  7
STANDARD
 41
1.0
 71
0
 72
1
 11
23621.0
 21
8942.0
100
AcDbText
 73
2
  0
ENDBLK
  5
59A
330
59B
100
AcDbEntity
  8
0
100
AcDbBlockEnd
  0
BLOCK
  5
59F
330
5A1
100
AcDbEntity
  8
0
100
AcDbBlockBegin
  2
77 03 0009000 2
  3
77 03 0009000 2
 70
0
 10
0.0
 20
0.0
  1

  0
LWPOLYLINE
  5
5A2
330
5A1
100
AcDbEntity
  8
0
 62
8
 67
0
100
AcDbPolyline
 90
5
 70
0
 10
23012.04
 20
8748.82
 10
23029.57
 20
8698.57
 10
22962.29
 20
8675.09
 10
22944.49
 20
8725.26
 10
23012.04
 20
8748.82
  0
TEXT
  5
5A3
330
5A1
100
AcDbEntity
  8
0
 62
8
 67
0
100
AcDbText
 10
22987.0
 20
8711.0
 40
7.940500000000066
  1
77:03:0009000:2 Parcel
 50
0.0
 51
0.0
  7
STANDARD
 41
1.0
 71
0
 72
1
 11
22987.0
 21
8711.0
100
AcDbText
 73
2
  0
ENDBLK
  5
5A0
330
5A1
100
AcDbEntity
  8
0
100
AcDbBlockEnd
  0
BLOCK
  5
5A5
330
5A7
100
AcDbEntity
  8
0
100
AcDbBlockBegin
  2
77 03 0009007 1000
  3
77 03 0009007 1000
 70
0
 10
0.0
 20
0.0
  1

  0
LWPOLYLINE
  5
5A8
330
5A7
100
AcDbEntity
  8
0
 62
8
 67
0
100
AcDbPolyline
 90
11
 70
0
 10
23703.49
 20
9016.11
 10
23750.53
 20
9032.22
 10
23764.72
 20
9037.08
 10
24038.39
 20
9130.8
 10
24054.51
 20
9136.47
 10
24064.66
 20
9108.34
 10
23775.19
 20
9006.53
 10
23761.04
 20
9001.55
 10
23723.27
 20
8988.27
 10
23715.54
 20
8985.43
 10
23703.49
 20
9016.11
  0
TEXT
  5
5A9
330
5A7
100
AcDbEntity
  8
0
 62
8
 67
0
100
AcDbText
 10
23884.0
 20
9060.0
 40
25.0
  1
77:03:0009007:1000 Parcel
 50
0.0
 51
0.0
  7
STANDARD
 41
1.0
 71
0
 72
1
 11
23884.0
 21
9060.0
100
AcDbText
 73
2
  0
ENDBLK
  5
5A6
330
5A7
100
AcDbEntity
  8
0
100
AcDbBlockEnd
  0
BLOCK
  5
5AB
330
5AD
100
AcDbEntity
  8
0
100
AcDbBlockBegin
  2
77 03 0009007 11
  3
77 03 0009007 11
 70
0
 10
0.0
 20
0.0
  1

  0
LWPOLYLINE
  5
5AE
330
5AD
100
AcDbEntity
  8
0
 62
8
 67
0
100
AcDbPolyline
 90
16
 70
0
 10
22964.15
 20
8652.37
 10
23033.69
 20
8676.98
 10
23061.96
 20
8685.23
 10
23061.98
 20
8685.24
 10
23055.97
 20
8704.93
 10
23055.62
 20
8705.16
 10
23052.3
 20
8708.53
 10
23049.16
 20
8714.04
 10
23033.52
 20
8758.86
 10
23034.69
 20
8763.77
 10
23036.51
 20
8767.27
 10
23036.82
 20
8767.61
 10
23015.98
 20
8835.85
 10
22912.48
 20
8796.96
 10
22919.1
 20
8781.07
 10
22964.15
 20
8652.37
  0
TEXT
  5
5AF
330
5AD
100
AcDbEntity
  8
0
 62
8
 67
0
100
AcDbText
 10
22987.0
 20
8744.0
 40
16.64899999999998
  1
77:03:0009007:11 Parcel
 50
0.0
 51
0.0
  7
STANDARD
 41
1.0
 71
0
 72
1
 11
22987.0
 21
8744.0
100
AcDbText
 73
2
  0
ENDBLK
  5
5AC
330
5AD
100
AcDbEntity
  8
0
100
AcDbBlockEnd
  0
BLOCK
  5
5B1
330
5B3
100
AcDbEntity
  8
0
100
AcDbBlockBegin
  2
77 03 0009007 12
  3
77 03 0009007 12
 70
0
 10
0.0
 20
0.0
  1

  0
LWPOLYLINE
  5
5B4
330
5B3
100
AcDbEntity
  8
0
 62
8
 67
0
100
AcDbPolyline
 90
59
 70
0
 10
23250.18
 20
8845.86
 10
23331.06
 20
8874.55
 10
23440.8
 20
8920.32
 10
23519.47
 20
8948.61
 10
23524.77
 20
8948.67
 10
23529.2
 20
8947.49
 10
23532.78
 20
8945.09
 10
23535.46
 20
8940.66
 10
23553.96
 20
8884.09
 10
23553.13
 20
8878.28
 10
23550.06
 20
8872.68
 10
23545.05
 20
8868.52
 10
23073.32
 20
8701.34
 10
23070.41
 20
8700.84
 10
23067.2
 20
8700.72
 10
23062.93
 20
8701.46
 10
23059.07
 20
8702.9
 10
23055.97
 20
8704.93
 10
23061.98
 20
8685.24
 10
23161.26
 20
8720.38
 10
23274.36
 20
8760.62
 10
23336.66
 20
8783.11
 10
23464.11
 20
8826.94
 10
23632.41
 20
8886.78
 10
23680.66
 20
8904.41
 10
23824.25
 20
8954.81
 10
23837.02
 20
8958.38
 10
23845.7
 20
8956.34
 10
23851.47
 20
8958.64
 10
23963.78
 20
8999.45
 10
24071.24
 20
9041.86
 10
24154.45
 20
9077.1
 10
24232.8
 20
9113.95
 10
24252.37
 20
9124.14
 10
24271.94
 20
9134.33
 10
24303.74
 20
9151.74
 10
24320.71
 20
9160.97
 10
24334.33
 20
9170.3
 10
24135.34
 20
9233.98
 10
23946.29
 20
9165.01
 10
23829.96
 20
9124.36
 10
23015.98
 20
8835.85
 10
23036.82
 20
8767.61
 10
23039.76
 20
8770.77
 10
23044.36
 20
8772.94
 10
23069.93
 20
8782.0
 10
23069.77
 20
8782.45
 10
23074.97
 20
8784.33
 10
23075.14
 20
8783.84
 10
23084.1
 20
8787.02
 10
23083.87
 20
8787.68
 10
23083.01
 20
8790.15
 10
23093.54
 20
8793.97
 10
23094.68
 20
8790.77
 10
23139.98
 20
8806.82
 10
23138.27
 20
8811.84
 10
23147.77
 20
8815.22
 10
23149.49
 20
8810.19
 10
23250.18
 20
8845.86
  0
LWPOLYLINE
  5
5B5
330
5B3
100
AcDbEntity
  8
0
 62
8
 67
0
100
AcDbPolyline
 90
25
 70
0
 10
23579.18
 20
8881.67
 10
23719.44
 20
8931.38
 10
23721.38
 20
8932.09
 10
23709.53
 20
8969.16
 10
23696.85
 20
8964.51
 10
23692.02
 20
8977.48
 10
23692.87
 20
8977.82
 10
23715.54
 20
8985.43
 10
23723.27
 20
8988.27
 10
23761.04
 20
9001.55
 10
23775.19
 20
9006.53
 10
24064.66
 20
9108.34
 10
24054.51
 20
9136.47
 10
24038.39
 20
9130.8
 10
23764.72
 20
9037.08
 10
23750.53
 20
9032.22
 10
23703.49
 20
9016.11
 10
23697.14
 20
9013.98
 10
23696.11
 20
9016.97
 10
23694.44
 20
9016.38
 10
23546.81
 20
8964.06
 10
23549.66
 20
8961.59
 10
23559.26
 20
8932.99
 10
23568.12
 20
8935.96
 10
23579.18
 20
8881.67
  0
LWPOLYLINE
  5
5B6
330
5B3
100
AcDbEntity
  8
0
 62
8
 67
0
100
AcDbPolyline
 90
6
 70
0
 10
24168.27
 20
9102.71
 10
24259.03
 20
9140.18
 10
24160.78
 20
9176.26
 10
24142.23
 20
9168.16
 10
24153.88
 20
9138.17
 10
24168.27
 20
9102.71
  0
TEXT
  5
5B7
330
5B3
100
AcDbEntity
  8
0
 62
8
 67
0
100
AcDbText
 10
23675.0
 20
8959.0
 40
25.0
  1
77:03:0009007:12 Parcel
 50
0.0
 51
0.0
  7
STANDARD
 41
1.0
 71
0
 72
1
 11
23675.0
 21
8959.0
100
AcDbText
 73
2
  0
ENDBLK
  5
5B2
330
5B3
100
AcDbEntity
  8
0
100
AcDbBlockEnd
  0
BLOCK
  5
5B9
330
5BB
100
AcDbEntity
  8
0
100
AcDbBlockBegin
  2
77 03 0009007 1222
  3
77 03 0009007 1222
 70
0
 10
0.0
 20
0.0
  1

  0
LWPOLYLINE
  5
5BC
330
5BB
100
AcDbEntity
  8
0
 62
8
 67
0
100
AcDbPolyline
 90
30
 70
0
 10
23331.06
 20
8874.55
 10
23440.8
 20
8920.32
 10
23519.47
 20
8948.61
 10
23524.77
 20
8948.67
 10
23529.2
 20
8947.49
 10
23532.78
 20
8945.09
 10
23535.46
 20
8940.66
 10
23553.96
 20
8884.09
 10
23553.13
 20
8878.28
 10
23550.06
 20
8872.68
 10
23545.05
 20
8868.52
 10
23073.32
 20
8701.34
 10
23070.41
 20
8700.84
 10
23067.2
 20
8700.72
 10
23062.93
 20
8701.46
 10
23059.07
 20
8702.9
 10
23055.97
 20
8704.93
 10
23036.83
 20
8767.61
 10
23039.76
 20
8770.77
 10
23044.36
 20
8772.94
 10
23068.81
 20
8781.6
 10
23071.78
 20
8772.96
 10
23099.39
 20
8781.61
 10
23095.96
 20
8791.22
 10
23139.04
 20
8806.48
 10
23139.98
 20
8803.71
 10
23151.47
 20
8807.5
 10
23150.42
 20
8810.51
 10
23250.18
 20
8845.86
 10
23331.06
 20
8874.55
  0
LWPOLYLINE
  5
5BD
330
5BB
100
AcDbEntity
  8
0
 62
8
 67
0
100
AcDbPolyline
 90
6
 70
0
 10
23484.22
 20
8905.76
 10
23490.07
 20
8888.91
 10
23486.0
 20
8887.68
 10
23478.28
 20
8885.82
 10
23472.81
 20
8901.45
 10
23484.22
 20
8905.76
  0
LWPOLYLINE
  5
5BE
330
5BB
100
AcDbEntity
  8
0
 62
8
 67
0
100
AcDbPolyline
 90
7
 70
0
 10
23519.53
 20
8910.06
 10
23520.87
 20
8906.28
 10
23520.06
 20
8905.56
 10
23522.91
 20
8899.23
 10
23515.75
 20
8896.84
 10
23512.13
 20
8907.28
 10
23519.53
 20
8910.06
  0
TEXT
  5
5BF
330
5BB
100
AcDbEntity
  8
0
 62
8
 67
0
100
AcDbText
 10
23295.0
 20
8824.0
 40
25.0
  1
77:03:0009007:1222 Parcel
 50
0.0
 51
0.0
  7
STANDARD
 41
1.0
 71
0
 72
1
 11
23295.0
 21
8824.0
100
AcDbText
 73
2
  0
ENDBLK
  5
5BA
330
5BB
100
AcDbEntity
  8
0
100
AcDbBlockEnd
  0
BLOCK
  5
5C1
330
5C3
100
AcDbEntity
  8
0
100
AcDbBlockBegin
  2
77 03 0009007 1224
  3
77 03 0009007 1224
 70
0
 10
0.0
 20
0.0
  1

  0
LWPOLYLINE
  5
5C4
330
5C3
100
AcDbEntity
  8
0
 62
8
 67
0
100
AcDbPolyline
 90
17
 70
0
 10
23694.44
 20
9016.38
 10
23696.11
 20
9016.97
 10
23697.14
 20
9013.98
 10
23707.8
 20
8983.92
 10
23705.17
 20
8982.79
 10
23692.87
 20
8977.82
 10
23692.02
 20
8977.48
 10
23696.85
 20
8964.51
 10
23709.53
 20
8969.16
 10
23721.38
 20
8932.09
 10
23719.44
 20
8931.38
 10
23579.18
 20
8881.67
 10
23568.12
 20
8935.96
 10
23565.73
 20
8947.71
 10
23549.66
 20
8961.59
 10
23546.81
 20
8964.06
 10
23694.44
 20
9016.38
  0
TEXT
  5
5C5
330
5C3
100
AcDbEntity
  8
0
 62
8
 67
0
100
AcDbText
 10
23634.0
 20
8949.0
 40
15.49349999999995
  1
77:03:0009007:1224 Parcel
 50
0.0
 51
0.0
  7
STANDARD
 41
1.0
 71
0
 72
1
 11
23634.0
 21
8949.0
100
AcDbText
 73
2
  0
ENDBLK
  5
5C2
330
5C3
100
AcDbEntity
  8
0
100
AcDbBlockEnd
  0
BLOCK
  5
5C7
330
5C9
100
AcDbEntity
  8
0
100
AcDbBlockBegin
  2
77 03 0009007 1225
  3
77 03 0009007 1225
 70
0
 10
0.0
 20
0.0
  1

  0
LWPOLYLINE
  5
5CA
330
5C9
100
AcDbEntity
  8
0
 62
8
 67
0
100
AcDbPolyline
 90
8
 70
0
 10
23093.54
 20
8793.97
 10
23094.68
 20
8790.77
 10
23096.34
 20
8786.11
 10
23085.73
 20
8782.39
 10
23084.1
 20
8787.02
 10
23083.87
 20
8787.68
 10
23083.01
 20
8790.15
 10
23093.54
 20
8793.97
  0
TEXT
  5
5CB
330
5C9
100
AcDbEntity
  8
0
 62
8
 67
0
100
AcDbText
 10
23089.0
 20
8788.0
 40
1.2454999999999927
  1
77:03:0009007:1225 Parcel
 50
0.0
 51
0.0
  7
STANDARD
 41
1.0
 71
0
 72
1
 11
23089.0
 21
8788.0
100
AcDbText
 73
2
  0
ENDBLK
  5
5C8
330
5C9
100
AcDbEntity
  8
0
100
AcDbBlockEnd
  0
BLOCK
  5
5CD
330
5CF
100
AcDbEntity
  8
0
100
AcDbBlockBegin
  2
77 03 0009007 1226
  3
77 03 0009007 1226
 70
0
 10
0.0
 20
0.0
  1

  0
LWPOLYLINE
  5
5D0
330
5CF
100
AcDbEntity
  8
0
 62
8
 67
0
100
AcDbPolyline
 90
7
 70
0
 10
23147.77
 20
8815.22
 10
23149.49
 20
8810.18
 10
23150.19
 20
8808.12
 10
23140.6
 20
8805.0
 10
23139.98
 20
8806.82
 10
23138.27
 20
8811.84
 10
23147.77
 20
8815.22
  0
TEXT
  5
5D1
330
5CF
100
AcDbEntity
  8
0
 62
8
 67
0
100
AcDbText
 10
23144.0
 20
8810.0
 40
1.106999999999789
  1
77:03:0009007:1226 Parcel
 50
0.0
 51
0.0
  7
STANDARD
 41
1.0
 71
0
 72
1
 11
23144.0
 21
8810.0
100
AcDbText
 73
2
  0
ENDBLK
  5
5CE
330
5CF
100
AcDbEntity
  8
0
100
AcDbBlockEnd
  0
BLOCK
  5
5D3
330
5D5
100
AcDbEntity
  8
0
100
AcDbBlockBegin
  2
77 03 0009007 1227
  3
77 03 0009007 1227
 70
0
 10
0.0
 20
0.0
  1

  0
LWPOLYLINE
  5
5D6
330
5D5
100
AcDbEntity
  8
0
 62
8
 67
0
100
AcDbPolyline
 90
10
 70
0
 10
23074.97
 20
8784.33
 10
23075.14
 20
8783.84
 10
23076.33
 20
8780.37
 10
23076.75
 20
8779.14
 10
23077.75
 20
8776.21
 10
23076.34
 20
8775.72
 10
23072.67
 20
8774.43
 10
23069.93
 20
8782.0
 10
23069.77
 20
8782.45
 10
23074.97
 20
8784.33
  0
TEXT
  5
5D7
330
5D5
100
AcDbEntity
  8
0
 62
8
 67
0
100
AcDbText
 10
23073.0
 20
8779.0
 40
0.8939999999996872
  1
77:03:0009007:1227 Parcel
 50
0.0
 51
0.0
  7
STANDARD
 41
1.0
 71
0
 72
1
 11
23073.0
 21
8779.0
100
AcDbText
 73
2
  0
ENDBLK
  5
5D4
330
5D5
100
AcDbEntity
  8
0
100
AcDbBlockEnd
  0
BLOCK
  5
5D9
330
5DB
100
AcDbEntity
  8
0
100
AcDbBlockBegin
  2
77 03 0009007 1228
  3
77 03 0009007 1228
 70
0
 10
0.0
 20
0.0
  1

  0
LWPOLYLINE
  5
5DC
330
5DB
100
AcDbEntity
  8
0
 62
8
 67
0
100
AcDbPolyline
 90
5
 70
0
 10
23483.53
 20
8904.36
 10
23485.02
 20
8900.05
 10
23476.25
 20
8896.72
 10
23474.76
 20
8901.03
 10
23483.53
 20
8904.36
  0
TEXT
  5
5DD
330
5DB
100
AcDbEntity
  8
0
 62
8
 67
0
100
AcDbText
 10
23479.0
 20
8900.0
 40
0.8950000000000727
  1
77:03:0009007:1228 Parcel
 50
0.0
 51
0.0
  7
STANDARD
 41
1.0
 71
0
 72
1
 11
23479.0
 21
8900.0
100
AcDbText
 73
2
  0
ENDBLK
  5
5DA
330
5DB
100
AcDbEntity
  8
0
100
AcDbBlockEnd
  0
BLOCK
  5
5DF
330
5E1
100
AcDbEntity
  8
0
100
AcDbBlockBegin
  2
77 03 0009007 1229
  3
77 03 0009007 1229
 70
0
 10
0.0
 20
0.0
  1

  0
LWPOLYLINE
  5
5E2
330
5E1
100
AcDbEntity
  8
0
 62
8
 67
0
100
AcDbPolyline
 90
6
 70
0
 10
23518.89
 20
8908.78
 10
23520.06
 20
8905.56
 10
23522.2
 20
8899.64
 10
23516.53
 20
8897.7
 10
23513.34
 20
8906.77
 10
23518.89
 20
8908.78
  0
TEXT
  5
5E3
330
5E1
100
AcDbEntity
  8
0
 62
8
 67
0
100
AcDbText
 10
23517.0
 20
8903.0
 40
0.9969999999999345
  1
77:03:0009007:1229 Parcel
 50
0.0
 51
0.0
  7
STANDARD
 41
1.0
 71
0
 72
1
 11
23517.0
 21
8903.0
100
AcDbText
 73
2
  0
ENDBLK
  5
5E0
330
5E1
100
AcDbEntity
  8
0
100
AcDbBlockEnd
  0
BLOCK
  5
5E5
330
5E7
100
AcDbEntity
  8
0
100
AcDbBlockBegin
  2
77 03 0009007 2
  3
77 03 0009007 2
 70
0
 10
0.0
 20
0.0
  1

  0
LWPOLYLINE
  5
5E8
330
5E7
100
AcDbEntity
  8
0
 62
8
 67
0
100
AcDbPolyline
 90
6
 70
0
 10
24160.78
 20
9176.26
 10
24259.03
 20
9140.18
 10
24168.27
 20
9102.71
 10
24153.88
 20
9138.17
 10
24142.23
 20
9168.16
 10
24160.78
 20
9176.26
  0
TEXT
  5
5E9
330
5E7
100
AcDbEntity
  8
0
 62
8
 67
0
100
AcDbText
 10
24200.0
 20
9139.0
 40
9.517500000000108
  1
77:03:0009007:2 Parcel
 50
0.0
 51
0.0
  7
STANDARD
 41
1.0
 71
0
 72
1
 11
24200.0
 21
9139.0
100
AcDbText
 73
2
  0
ENDBLK
  5
5E6
330
5E7
100
AcDbEntity
  8
0
100
AcDbBlockEnd
  0
BLOCK
  5
5EB
330
5ED
100
AcDbEntity
  8
0
100
AcDbBlockBegin
  2
77 03 0009007 6
  3
77 03 0009007 6
 70
0
 10
0.0
 20
0.0
  1

  0
LWPOLYLINE
  5
5EE
330
5ED
100
AcDbEntity
  8
0
 62
8
 67
0
100
AcDbPolyline
 90
10
 70
0
 10
23697.14
 20
9013.98
 10
23703.49
 20
9016.11
 10
23715.54
 20
8985.43
 10
23692.87
 20
8977.82
 10
23692.02
 20
8977.48
 10
23568.12
 20
8935.96
 10
23559.26
 20
8932.99
 10
23549.66
 20
8961.59
 10
23548.8
 20
8964.17
 10
23697.14
 20
9013.98
  0
TEXT
  5
5EF
330
5ED
100
AcDbEntity
  8
0
 62
8
 67
0
100
AcDbText
 10
23632.0
 20
8974.0
 40
12.493000000000393
  1
77:03:0009007:6 Parcel
 50
0.0
 51
0.0
  7
STANDARD
 41
1.0
 71
0
 72
1
 11
23632.0
 21
8974.0
100
AcDbText
 73
2
  0
ENDBLK
  5
5EC
330
5ED
100
AcDbEntity
  8
0
100
AcDbBlockEnd
  0
BLOCK
  5
5F1
330
5F3
100
AcDbEntity
  8
0
100
AcDbBlockBegin
  2
77 03 0009005 2298
  3
77 03 0009005 2298
 70
0
 10
0.0
 20
0.0
  1

  0
LWPOLYLINE
  5
5F4
330
5F3
100
AcDbEntity
  8
0
 62
63
 67
0
100
AcDbPolyline
 90
17
 70
0
 10
23012.04
 20
8748.82
 10
22988.91
 20
8740.75
 10
22988.91
 20
8741.82
 10
22988.28
 20
8742.75
 10
22987.27
 20
8743.13
 10
22963.94
 20
8734.88
 10
22963.65
 20
8734.42
 10
22963.62
 20
8733.48
 10
22964.75
 20
8732.33
 10
22958.38
 20
8730.11
 10
22958.65
 20
8729.33
 10
22952.88
 20
8726.95
 10
22952.39
 20
8728.01
 10
22944.49
 20
8725.26
 10
22962.29
 20
8675.09
 10
23029.57
 20
8698.57
 10
23012.04
 20
8748.82
  0
TEXT
  5
5F5
330
5F3
100
AcDbEntity
  8
0
 62
63
 67
0
100
AcDbText
 10
22987.0
 20
8711.0
 40
7.940500000000066
  1
77:03:0009005:2298 Construction
 50
0.0
 51
0.0
  7
STANDARD
 41
1.0
 71
0
 72
1
 11
22987.0
 21
8711.0
100
AcDbText
 73
2
  0
ENDBLK
  5
5F2
330
5F3
100
AcDbEntity
  8
0
100
AcDbBlockEnd
  0
BLOCK
  5
5F7
330
5F9
100
AcDbEntity
  8
0
100
AcDbBlockBegin
  2
77 03 0009007 1001
  3
77 03 0009007 1001
 70
0
 10
0.0
 20
0.0
  1

  0
LWPOLYLINE
  5
5FA
330
5F9
100
AcDbEntity
  8
0
 62
63
 67
0
100
AcDbPolyline
 90
5
 70
0
 10
24060.7
 20
9114.58
 10
23742.13
 20
8999.84
 10
23744.29
 20
8994.14
 10
24062.7
 20
9108.89
 10
24060.7
 20
9114.58
  0
TEXT
  5
5FB
330
5F9
100
AcDbEntity
  8
0
 62
63
 67
0
100
AcDbText
 10
23902.0
 20
9054.0
 40
22.05049999999992
  1
77:03:0009007:1001 Building
 50
0.0
 51
0.0
  7
STANDARD
 41
1.0
 71
0
 72
1
 11
23902.0
 21
9054.0
100
AcDbText
 73
2
  0
ENDBLK
  5
5F8
330
5F9
100
AcDbEntity
  8
0
100
AcDbBlockEnd
  0
BLOCK
  5
5FD
330
5FF
100
AcDbEntity
  8
0
100
AcDbBlockBegin
  2
77 03 0009007 1002
  3
77 03 0009007 1002
 70
0
 10
0.0
 20
0.0
  1

  0
LWPOLYLINE
  5
600
330
5FF
100
AcDbEntity
  8
0
 62
63
 67
0
100
AcDbPolyline
 90
5
 70
0
 10
24030.18
 20
9129.04
 10
23735.11
 20
9024.25
 10
23737.16
 20
9018.15
 10
24032.38
 20
9122.82
 10
24030.18
 20
9129.04
  0
TEXT
  5
601
330
5FF
100
AcDbEntity
  8
0
 62
63
 67
0
100
AcDbText
 10
23883.0
 20
9073.0
 40
20.40799999999981
  1
77:03:0009007:1002 Building
 50
0.0
 51
0.0
  7
STANDARD
 41
1.0
 71
0
 72
1
 11
23883.0
 21
9073.0
100
AcDbText
 73
2
  0
ENDBLK
  5
5FE
330
5FF
100
AcDbEntity
  8
0
100
AcDbBlockEnd
  0
BLOCK
  5
603
330
605
100
AcDbEntity
  8
0
100
AcDbBlockBegin
  2
77 03 0009007 1003
  3
77 03 0009007 1003
 70
0
 10
0.0
 20
0.0
  1

  0
LWPOLYLINE
  5
606
330
605
100
AcDbEntity
  8
0
 62
63
 67
0
100
AcDbPolyline
 90
9
 70
0
 10
23721.14
 20
9012.36
 10
23724.17
 20
9004.78
 10
23729.46
 20
9006.64
 10
23727.85
 20
9010.59
 10
23729.25
 20
9011.15
 10
23728.58
 20
9012.74
 10
23727.2
 20
9012.22
 10
23726.34
 20
9014.22
 10
23721.14
 20
9012.36
  0
TEXT
  5
607
330
605
100
AcDbEntity
  8
0
 62
63
 67
0
100
AcDbText
 10
23725.0
 20
9009.0
 40
0.88799999999992
  1
77:03:0009007:1003 Building
 50
0.0
 51
0.0
  7
STANDARD
 41
1.0
 71
0
 72
1
 11
23725.0
 21
9009.0
100
AcDbText
 73
2
  0
ENDBLK
  5
604
330
605
100
AcDbEntity
  8
0
100
AcDbBlockEnd
  0
BLOCK
  5
609
330
60B
100
AcDbEntity
  8
0
100
AcDbBlockBegin
  2
77 03 0009007 1004
  3
77 03 0009007 1004
 70
0
 10
0.0
 20
0.0
  1

  0
LWPOLYLINE
  5
60C
330
60B
100
AcDbEntity
  8
0
 62
63
 67
0
100
AcDbPolyline
 90
9
 70
0
 10
23742.63
 20
8993.25
 10
23740.99
 20
8997.61
 10
23737.49
 20
8996.27
 10
23736.91
 20
8997.5
 10
23735.36
 20
8996.86
 10
23735.78
 20
8995.63
 10
23732.89
 20
8994.56
 10
23734.67
 20
8990.21
 10
23742.63
 20
8993.25
  0
TEXT
  5
60D
330
60B
100
AcDbEntity
  8
0
 62
63
 67
0
100
AcDbText
 10
23737.0
 20
8993.0
 40
0.8569999999999709
  1
77:03:0009007:1004 Building
 50
0.0
 51
0.0
  7
STANDARD
 41
1.0
 71
0
 72
1
 11
23737.0
 21
8993.0
100
AcDbText
 73
2
  0
ENDBLK
  5
60A
330
60B
100
AcDbEntity
  8
0
100
AcDbBlockEnd
  0
BLOCK
  5
60F
330
611
100
AcDbEntity
  8
0
100
AcDbBlockBegin
  2
77 03 0009007 1223
  3
77 03 0009007 1223
 70
0
 10
0.0
 20
0.0
  1

  0
LWPOLYLINE
  5
612
330
611
100
AcDbEntity
  8
0
 62
63
 67
0
100
AcDbPolyline
 90
5
 70
0
 10
22961.88
 20
8702.82
 10
22959.8
 20
8706.11
 10
22982.97
 20
8713.86
 10
22995.11
 20
8717.96
 10
23011.5
 20
8724.18
  0
LWPOLYLINE
  5
613
330
611
100
AcDbEntity
  8
0
 62
63
 67
0
100
AcDbPolyline
 90
2
 70
0
 10
22995.11
 20
8717.96
 10
22988.33
 20
8738.23
  0
LWPOLYLINE
  5
614
330
611
100
AcDbEntity
  8
0
 62
63
 67
0
100
AcDbPolyline
 90
8
 70
0
 10
23005.31
 20
8727.39
 10
23011.5
 20
8724.18
 10
23012.83
 20
8720.86
 10
23015.37
 20
8712.02
 10
23013.27
 20
8711.46
 10
23017.58
 20
8699.52
 10
23019.68
 20
8694.55
 10
23024.76
 20
8690.38
  0
LWPOLYLINE
  5
615
330
611
100
AcDbEntity
  8
0
 62
63
 67
0
100
AcDbPolyline
 90
2
 70
0
 10
23012.83
 20
8720.86
 10
23007.52
 20
8715.26
  0
LWPOLYLINE
  5
616
330
611
100
AcDbEntity
  8
0
 62
63
 67
0
100
AcDbPolyline
 90
5
 70
0
 10
23002.17
 20
8677.79
 10
22991.83
 20
8675.68
 10
22973.93
 20
8669.56
 10
22964.12
 20
8694.69
 10
22959.8
 20
8706.11
  0
LWPOLYLINE
  5
617
330
611
100
AcDbEntity
  8
0
 62
63
 67
0
100
AcDbPolyline
 90
1
 70
0
 10
22961.88
 20
8702.82
  0
LWPOLYLINE
  5
618
330
611
100
AcDbEntity
  8
0
 62
63
 67
0
100
AcDbPolyline
 90
1
 70
0
 10
22959.8
 20
8706.11
  0
LWPOLYLINE
  5
619
330
611
100
AcDbEntity
  8
0
 62
63
 67
0
100
AcDbPolyline
 90
1
 70
0
 10
22982.97
 20
8713.86
  0
LWPOLYLINE
  5
61A
330
611
100
AcDbEntity
  8
0
 62
63
 67
0
100
AcDbPolyline
 90
1
 70
0
 10
22995.12
 20
8717.93
  0
LWPOLYLINE
  5
61B
330
611
100
AcDbEntity
  8
0
 62
63
 67
0
100
AcDbPolyline
 90
1
 70
0
 10
23011.5
 20
8724.18
  0
LWPOLYLINE
  5
61C
330
611
100
AcDbEntity
  8
0
 62
63
 67
0
100
AcDbPolyline
 90
1
 70
0
 10
22988.33
 20
8738.23
  0
LWPOLYLINE
  5
61D
330
611
100
AcDbEntity
  8
0
 62
63
 67
0
100
AcDbPolyline
 90
1
 70
0
 10
23005.31
 20
8727.39
  0
LWPOLYLINE
  5
61E
330
611
100
AcDbEntity
  8
0
 62
63
 67
0
100
AcDbPolyline
 90
1
 70
0
 10
23012.83
 20
8720.86
  0
LWPOLYLINE
  5
61F
330
611
100
AcDbEntity
  8
0
 62
63
 67
0
100
AcDbPolyline
 90
1
 70
0
 10
23015.37
 20
8712.02
  0
LWPOLYLINE
  5
620
330
611
100
AcDbEntity
  8
0
 62
63
 67
0
100
AcDbPolyline
 90
1
 70
0
 10
23013.27
 20
8711.46
  0
LWPOLYLINE
  5
621
330
611
100
AcDbEntity
  8
0
 62
63
 67
0
100
AcDbPolyline
 90
1
 70
0
 10
23017.58
 20
8699.52
  0
LWPOLYLINE
  5
622
330
611
100
AcDbEntity
  8
0
 62
63
 67
0
100
AcDbPolyline
 90
1
 70
0
 10
23019.68
 20
8694.55
  0
LWPOLYLINE
  5
623
330
611
100
AcDbEntity
  8
0
 62
63
 67
0
100
AcDbPolyline
 90
1
 70
0
 10
23024.76
 20
8690.38
  0
LWPOLYLINE
  5
624
330
611
100
AcDbEntity
  8
0
 62
63
 67
0
100
AcDbPolyline
 90
1
 70
0
 10
23007.52
 20
8715.26
  0
LWPOLYLINE
  5
625
330
611
100
AcDbEntity
  8
0
 62
63
 67
0
100
AcDbPolyline
 90
1
 70
0
 10
23002.17
 20
8677.79
  0
LWPOLYLINE
  5
626
330
611
100
AcDbEntity
  8
0
 62
63
 67
0
100
AcDbPolyline
 90
1
 70
0
 10
22991.83
 20
8675.68
  0
LWPOLYLINE
  5
627
330
611
100
AcDbEntity
  8
0
 62
63
 67
0
100
AcDbPolyline
 90
1
 70
0
 10
22973.93
 20
8669.56
  0
LWPOLYLINE
  5
628
330
611
100
AcDbEntity
  8
0
 62
63
 67
0
100
AcDbPolyline
 90
1
 70
0
 10
22964.12
 20
8694.69
  0
TEXT
  5
629
330
611
100
AcDbEntity
  8
0
 62
63
 67
0
100
AcDbText
 10
22992.0
 20
8703.0
 40
6.681499999999869
  1
77:03:0009007:1223 Construction
 50
0.0
 51
0.0
  7
STANDARD
 41
1.0
 71
0
 72
1
 11
22992.0
 21
8703.0
100
AcDbText
 73
2
  0
ENDBLK
  5
610
330
611
100
AcDbEntity
  8
0
100
AcDbBlockEnd
  0
BLOCK
  5
62B
330
62D
100
AcDbEntity
  8
0
100
AcDbBlockBegin
  2
77 03 0009007 1230
  3
77 03 0009007 1230
 70
0
 10
0.0
 20
0.0
  1

  0
LWPOLYLINE
  5
62E
330
62D
100
AcDbEntity
  8
0
 62
63
 67
0
100
AcDbPolyline
 90
15
 70
0
 10
24178.28
 20
9217.86
 10
24108.34
 20
9191.41
 10
24000.57
 20
9154.67
 10
23915.32
 20
9124.91
 10
23869.67
 20
9109.89
 10
23757.78
 20
9069.59
 10
23626.52
 20
9022.91
 10
23582.2
 20
9007.36
 10
23534.44
 20
8990.91
 10
23405.28
 20
8944.81
 10
23295.63
 20
8905.38
 10
23250.06
 20
8889.09
 10
23174.67
 20
8862.49
 10
23070.6
 20
8826.19
 10
22947.12
 20
8782.35
  0
LWPOLYLINE
  5
62F
330
62D
100
AcDbEntity
  8
0
 62
63
 67
0
100
AcDbPolyline
 90
1
 70
0
 10
22947.12
 20
8782.35
  0
LWPOLYLINE
  5
630
330
62D
100
AcDbEntity
  8
0
 62
63
 67
0
100
AcDbPolyline
 90
1
 70
0
 10
23070.6
 20
8826.19
  0
LWPOLYLINE
  5
631
330
62D
100
AcDbEntity
  8
0
 62
63
 67
0
100
AcDbPolyline
 90
1
 70
0
 10
23174.67
 20
8862.49
  0
LWPOLYLINE
  5
632
330
62D
100
AcDbEntity
  8
0
 62
63
 67
0
100
AcDbPolyline
 90
1
 70
0
 10
23295.63
 20
8905.38
  0
LWPOLYLINE
  5
633
330
62D
100
AcDbEntity
  8
0
 62
63
 67
0
100
AcDbPolyline
 90
1
 70
0
 10
23405.28
 20
8944.81
  0
LWPOLYLINE
  5
634
330
62D
100
AcDbEntity
  8
0
 62
63
 67
0
100
AcDbPolyline
 90
1
 70
0
 10
23534.44
 20
8990.91
  0
LWPOLYLINE
  5
635
330
62D
100
AcDbEntity
  8
0
 62
63
 67
0
100
AcDbPolyline
 90
1
 70
0
 10
23582.2
 20
9007.36
  0
LWPOLYLINE
  5
636
330
62D
100
AcDbEntity
  8
0
 62
63
 67
0
100
AcDbPolyline
 90
1
 70
0
 10
23626.52
 20
9022.91
  0
LWPOLYLINE
  5
637
330
62D
100
AcDbEntity
  8
0
 62
63
 67
0
100
AcDbPolyline
 90
1
 70
0
 10
23757.78
 20
9069.59
  0
LWPOLYLINE
  5
638
330
62D
100
AcDbEntity
  8
0
 62
63
 67
0
100
AcDbPolyline
 90
1
 70
0
 10
23869.67
 20
9109.89
  0
LWPOLYLINE
  5
639
330
62D
100
AcDbEntity
  8
0
 62
63
 67
0
100
AcDbPolyline
 90
1
 70
0
 10
24000.57
 20
9154.67
  0
LWPOLYLINE
  5
63A
330
62D
100
AcDbEntity
  8
0
 62
63
 67
0
100
AcDbPolyline
 90
1
 70
0
 10
24108.34
 20
9191.41
  0
LWPOLYLINE
  5
63B
330
62D
100
AcDbEntity
  8
0
 62
63
 67
0
100
AcDbPolyline
 90
1
 70
0
 10
24178.28
 20
9217.86
  0
TEXT
  5
63C
330
62D
100
AcDbEntity
  8
0
 62
63
 67
0
100
AcDbText
 10
23562.0
 20
9000.0
 40
25.0
  1
77:03:0009007:1230 Construction
 50
0.0
 51
0.0
  7
STANDARD
 41
1.0
 71
0
 72
1
 11
23562.0
 21
9000.0
100
AcDbText
 73
2
  0
ENDBLK
  5
62C
330
62D
100
AcDbEntity
  8
0
100
AcDbBlockEnd
  0
ENDSEC
  0
SECTION
  2
ENTITIES
  0
INSERT
  5
59E
330
1F
100
AcDbEntity
  8
0
 67
0
100
AcDbBlockReference
  2
77 03 0009007
 10
0.0
 20
0.0
 41
1.0
 42
1.0
 43
1.0
 50
0.0
  0
INSERT
  5
5A4
330
1F
100
AcDbEntity
  8
0
 67
0
100
AcDbBlockReference
  2
77 03 0009000 2
 10
0.0
 20
0.0
 41
1.0
 42
1.0
 43
1.0
 50
0.0
  0
INSERT
  5
5AA
330
1F
100
AcDbEntity
  8
0
 67
0
100
AcDbBlockReference
  2
77 03 0009007 1000
 10
0.0
 20
0.0
 41
1.0
 42
1.0
 43
1.0
 50
0.0
  0
INSERT
  5
5B0
330
1F
100
AcDbEntity
  8
0
 67
0
100
AcDbBlockReference
  2
77 03 0009007 11
 10
0.0
 20
0.0
 41
1.0
 42
1.0
 43
1.0
 50
0.0
  0
INSERT
  5
5B8
330
1F
100
AcDbEntity
  8
0
 67
0
100
AcDbBlockReference
  2
77 03 0009007 12
 10
0.0
 20
0.0
 41
1.0
 42
1.0
 43
1.0
 50
0.0
  0
INSERT
  5
5C0
330
1F
100
AcDbEntity
  8
0
 67
0
100
AcDbBlockReference
  2
77 03 0009007 1222
 10
0.0
 20
0.0
 41
1.0
 42
1.0
 43
1.0
 50
0.0
  0
INSERT
  5
5C6
330
1F
100
AcDbEntity
  8
0
 67
0
100
AcDbBlockReference
  2
77 03 0009007 1224
 10
0.0
 20
0.0
 41
1.0
 42
1.0
 43
1.0
 50
0.0
  0
INSERT
  5
5CC
330
1F
100
AcDbEntity
  8
0
 67
0
100
AcDbBlockReference
  2
77 03 0009007 1225
 10
0.0
 20
0.0
 41
1.0
 42
1.0
 43
1.0
 50
0.0
  0
INSERT
  5
5D2
330
1F
100
AcDbEntity
  8
0
 67
0
100
AcDbBlockReference
  2
77 03 0009007 1226
 10
0.0
 20
0.0
 41
1.0
 42
1.0
 43
1.0
 50
0.0
  0
INSERT
  5
5D8
330
1F
100
AcDbEntity
  8
0
 67
0
100
AcDbBlockReference
  2
77 03 0009007 1227
 10
0.0
 20
0.0
 41
1.0
 42
1.0
 43
1.0
 50
0.0
  0
INSERT
  5
5DE
330
1F
100
AcDbEntity
  8
0
 67
0
100
AcDbBlockReference
  2
77 03 0009007 1228
 10
0.0
 20
0.0
 41
1.0
 42
1.0
 43
1.0
 50
0.0
  0
INSERT
  5
5E4
330
1F
100
AcDbEntity
  8
0
 67
0
100
AcDbBlockReference
  2
77 03 0009007 1229
 10
0.0
 20
0.0
 41
1.0
 42
1.0
 43
1.0
 50
0.0
  0
INSERT
  5
5EA
330
1F
100
AcDbEntity
  8
0
 67
0
100
AcDbBlockReference
  2
77 03 0009007 2
 10
0.0
 20
0.0
 41
1.0
 42
1.0
 43
1.0
 50
0.0
  0
INSERT
  5
5F0
330
1F
100
AcDbEntity
  8
0
 67
0
100
AcDbBlockReference
  2
77 03 0009007 6
 10
0.0
 20
0.0
 41
1.0
 42
1.0
 43
1.0
 50
0.0
  0
INSERT
  5
5F6
330
1F
100
AcDbEntity
  8
0
 67
0
100
AcDbBlockReference
  2
77 03 0009005 2298
 10
0.0
 20
0.0
 41
1.0
 42
1.0
 43
1.0
 50
0.0
  0
INSERT
  5
5FC
330
1F
100
AcDbEntity
  8
0
 67
0
100
AcDbBlockReference
  2
77 03 0009007 1001
 10
0.0
 20
0.0
 41
1.0
 42
1.0
 43
1.0
 50
0.0
  0
INSERT
  5
602
330
1F
100
AcDbEntity
  8
0
 67
0
100
AcDbBlockReference
  2
77 03 0009007 1002
 10
0.0
 20
0.0
 41
1.0
 42
1.0
 43
1.0
 50
0.0
  0
INSERT
  5
608
330
1F
100
AcDbEntity
  8
0
 67
0
100
AcDbBlockReference
  2
77 03 0009007 1003
 10
0.0
 20
0.0
 41
1.0
 42
1.0
 43
1.0
 50
0.0
  0
INSERT
  5
60E
330
1F
100
AcDbEntity
  8
0
 67
0
100
AcDbBlockReference
  2
77 03 0009007 1004
 10
0.0
 20
0.0
 41
1.0
 42
1.0
 43
1.0
 50
0.0
  0
INSERT
  5
62A
330
1F
100
AcDbEntity
  8
0
 67
0
100
AcDbBlockReference
  2
77 03 0009007 1223
 10
0.0
 20
0.0
 41
1.0
 42
1.0
 43
1.0
 50
0.0
  0
INSERT
  5
63D
330
1F
100
AcDbEntity
  8
0
 67
0
100
AcDbBlockReference
  2
77 03 0009007 1230
 10
0.0
 20
0.0
 41
1.0
 42
1.0
 43
1.0
 50
0.0
  0
ENDSEC
  0
SECTION
  2
OBJECTS
  0
DICTIONARY
  5
C
330
0
100
AcDbDictionary
281
1
  3
ACAD_COLOR
350
4A3
  3
ACAD_GROUP
350
4A4
  3
ACAD_LAYOUT
350
4A5
  3
ACAD_MATERIAL
350
4A6
  3
ACAD_MLEADERSTYLE
350
4A7
  3
ACAD_MLINESTYLE
350
4A8
  3
ACAD_PLOTSETTINGS
350
4A9
  3
ACAD_PLOTSTYLENAME
350
4AB
  3
ACAD_SCALELIST
350
4AC
  3
ACAD_TABLESTYLE
350
4AD
  3
ACAD_VISUALSTYLE
350
4AE
  0
DICTIONARY
  5
4A3
330
C
100
AcDbDictionary
281
1
  0
DICTIONARY
  5
4A4
330
C
100
AcDbDictionary
281
1
  0
DICTIONARY
  5
4A5
330
C
100
AcDbDictionary
281
1
  3
Model
350
4AF
  3
Layout1
350
4B0
  0
DICTIONARY
  5
4A6
330
C
100
AcDbDictionary
281
1
  0
DICTIONARY
  5
4A7
330
C
100
AcDbDictionary
281
1
  0
DICTIONARY
  5
4A8
330
C
100
AcDbDictionary
281
1
  0
DICTIONARY
  5
4A9
330
C
100
AcDbDictionary
281
1
  0
ACDBPLACEHOLDER
  5
4AA
330
4AB
  0
ACDBDICTIONARYWDFLT
  5
4AB
330
C
100
AcDbDictionary
281
1
  3
Normal
350
4AA
100
AcDbDictionaryWithDefault
340
4AA
  0
DICTIONARY
  5
4AC
330
C
100
AcDbDictionary
281
1
  0
DICTIONARY
  5
4AD
330
C
100
AcDbDictionary
281
1
  0
DICTIONARY
  5
4AE
330
C
100
AcDbDictionary
281
1
  0
LAYOUT
  5
4AF
330
4A5
100
AcDbPlotSettings
  1

  2
DWFx ePlot (XPS Compatible).pc3
  4
ANSI_A_(8.50_x_11.00_Inches)
  6

 40
5.8
 41
17.8
 42
5.8
 43
17.8
 44
215.9
 45
279.4
 46
0.0
 47
0.0
 48
0.0
 49
0.0
140
0.0
141
0.0
142
1.0
143
14.53
 70
11952
 72
0
 73
1
 74
0
  7

 75
0
147
0.069
148
114.98
149
300.29
100
AcDbLayout
  1
Model
 70
1
 71
0
 10
0.0
 20
0.0
 11
12.0
 21
9.0
 12
0.0
 22
0.0
 32
0.0
 14
0.0
 24
0.0
 34
0.0
 15
0.0
 25
0.0
 35
0.0
146
0.0
 13
0.0
 23
0.0
 33
0.0
 16
1.0
 26
0.0
 36
0.0
 17
0.0
 27
1.0
 37
0.0
 76
0
330
1F
  0
LAYOUT
  5
4B0
330
4A5
100
AcDbPlotSettings
  1

  2
DWFx ePlot (XPS Compatible).pc3
  4
ANSI_A_(8.50_x_11.00_Inches)
  6

 40
5.8
 41
17.8
 42
5.8
 43
17.8
 44
215.9
 45
279.4
 46
0.0
 47
0.0
 48
0.0
 49
0.0
140
0.0
141
0.0
142
1.0
143
1.0
 70
688
 72
0
 73
1
 74
5
  7
acad.ctb
 75
16
147
1.0
148
0.0
149
0.0
100
AcDbLayout
  1
Layout1
 70
1
 71
1
 10
-0.7
 20
-0.23
 11
10.3
 21
8.27
 12
0.0
 22
0.0
 32
0.0
 14
0.63
 24
0.8
 34
0.0
 15
9.0
 25
7.2
 35
0.0
146
0.0
 13
0.0
 23
0.0
 33
0.0
 16
1.0
 26
0.0
 36
0.0
 17
0.0
 27
1.0
 37
0.0
 76
0
330
58
  0
ENDSEC
  0
EOF
